<svg width="37" height="37" viewBox="0 0 37 37" fill="none" xmlns="http://www.w3.org/2000/svg">
<path d="M11.5 6H9H7.5C7 6.16667 6 6.7 6 7.5C6 8.5 5.5 8.5 5.5 10.5C5.5 12.5 5.5 11.5 6 12.5C6.5 13.5 6 13.5 6.5 14C7 14.5 6.74115 14.5 7 16C7.25885 17.5 8 17.5 8.5 18.5C9 19.5 9 19 9 20C9 21 9.5 20.5 10.5 21.5C11.5 22.5 11 22 11.5 23C12 24 13 24 14 25C15 26 15.5 27 16 27.5C16.5 28 17.5 28 18 28.5C18.5 29 21 30.5 22 30.5C23 30.5 23.5 31 24.5 30.5C25.5 30 25.5 31 27 30.5C28.5 30 28 30.5 30 29.5L31 29C31.1667 28.6667 31.5 27.9 31.5 27.5C31.5 27.1 31.1667 26.6667 31 26.5C30.8333 26.1667 30.4 25.4 30 25C29.5 24.5 29 24.5 29 24C29 23.6 28.3333 23.5 28 23.5C27.6667 23.3333 26.8 23 26 23C25 23 24.5 23 24 23.5C23.6 23.9 23.5 24.3333 23.5 24.5C22.8333 24.5 21.4 24.4 21 24C20.6 23.6 17.8333 22.5 16.5 22L14.5 21C14 20.3333 13 18.8 13 18C13 17 12 16.5 12 16C12 15.5 12 15.5 13 14.5C14 13.5 13.5 13 14 12.5C14.4 12.1 13.8333 10.6667 13.5 10L11.5 6Z" fill="white"/>
<path fill-rule="evenodd" clip-rule="evenodd" d="M14.1941 21.806C17.7677 25.3796 21.0869 27.3714 23.5566 28.4783C25.7134 29.445 28.2587 29.6865 30.2428 27.7023L30.6961 27.2476L25.2447 23.7788C24.2087 25.2896 22.2493 26.1761 20.2929 25.3513C18.8114 24.7254 16.8504 23.6555 15.0975 21.9026C13.3446 20.1497 12.2762 18.1887 11.6503 16.7072C10.824 14.7508 11.7089 12.7913 13.2213 11.7553L9.75253 6.30401L9.29774 6.75726C7.31361 8.74139 6.55665 10.2867 7.52174 12.4435C8.62865 14.9132 10.6205 18.2324 14.1941 21.806ZM22.2971 31.2919C19.4989 30.0385 15.8652 27.837 12.0142 23.9859C8.16307 20.1364 5.96157 16.5011 4.70665 13.703C3.04936 10.003 4.56328 7.13343 7.11782 4.57734L7.57107 4.12255C7.89751 3.7959 8.29315 3.54675 8.72879 3.39349C9.16442 3.24023 9.62891 3.18679 10.088 3.23711C10.547 3.28742 10.9889 3.44021 11.381 3.68419C11.7731 3.92817 12.1054 4.25711 12.3533 4.64672L16.7162 11.5071C16.8318 11.6891 16.9079 11.8933 16.9396 12.1065C16.9714 12.3197 16.9581 12.5372 16.9005 12.745C16.843 12.9527 16.7425 13.1461 16.6056 13.3126C16.4687 13.4792 16.2984 13.6151 16.1057 13.7117L15.1299 14.2004C14.4639 14.5334 14.3282 15.1208 14.4901 15.5078C15.0127 16.7457 15.8868 18.3306 17.2774 19.7227C18.6695 21.1133 20.2544 21.9874 21.4923 22.51C21.8793 22.6734 22.4667 22.5362 22.7997 21.8702L23.2884 20.8943C23.3848 20.7015 23.5207 20.5311 23.6871 20.394C23.8536 20.2569 24.0469 20.1563 24.2547 20.0986C24.4625 20.041 24.68 20.0275 24.8933 20.0591C25.1066 20.0908 25.3109 20.1668 25.4929 20.2823L32.3534 24.6468C32.743 24.8947 33.0719 25.227 33.3159 25.6191C33.5599 26.0112 33.7127 26.4531 33.763 26.9121C33.8133 27.3712 33.7598 27.8357 33.6066 28.2713C33.4533 28.7069 33.2042 29.1026 32.8775 29.429L32.4227 29.8823C29.8682 32.4383 25.9986 32.9507 22.2971 31.2919Z" fill="white"/>
</svg>
