<svg width="31" height="27" viewBox="0 0 31 27" fill="none" xmlns="http://www.w3.org/2000/svg">
<path fill-rule="evenodd" clip-rule="evenodd" d="M2.12253 11.8057C10.4423 8.19256 15.9809 5.7917 18.7621 4.62693C26.6778 1.32279 28.3417 0.752286 29.4114 0.728516C29.6491 0.728516 30.1721 0.776058 30.5287 1.06131C30.8139 1.29902 30.8852 1.60804 30.9328 1.84575C30.9803 2.08345 31.0279 2.58264 30.9803 2.96297C30.5524 7.47943 28.6983 18.4378 27.7475 23.4772C27.3434 25.6166 26.5589 26.3297 25.7983 26.401C24.1343 26.5436 22.8745 25.3075 21.2818 24.2616C18.7621 22.6214 17.3596 21.5993 14.9112 19.9829C12.0825 18.1288 13.9129 17.1066 15.5293 15.4427C15.9571 15.0148 23.2548 8.35895 23.3974 7.76468C23.4212 7.69337 23.4212 7.40812 23.2548 7.26549C23.0884 7.12287 22.8507 7.17041 22.6605 7.21795C22.399 7.26549 18.4055 9.92782 10.6325 15.1812C9.49148 15.9656 8.46934 16.3459 7.54228 16.3222C6.52013 16.2984 4.57092 15.7517 3.09713 15.2763C1.31432 14.7058 -0.111928 14.3967 0.00692614 13.3984C0.0782386 12.8754 0.791363 12.3525 2.12253 11.8057Z" fill="white"/>
</svg>
