<svg width="37" height="37" viewBox="0 0 37 37" fill="none" xmlns="http://www.w3.org/2000/svg">
<path fill-rule="evenodd" clip-rule="evenodd" d="M5.39583 18.5C5.39583 15.9082 6.16437 13.3747 7.60428 11.2197C9.04418 9.06475 11.0908 7.38515 13.4852 6.39333C15.8797 5.40151 18.5145 5.142 21.0565 5.64763C23.5984 6.15325 25.9334 7.4013 27.766 9.23395C29.5987 11.0666 30.8467 13.4015 31.3524 15.9435C31.858 18.4855 31.5985 21.1203 30.6067 23.5147C29.6148 25.9092 27.9352 27.9558 25.7803 29.3957C23.6253 30.8356 21.0918 31.6042 18.5 31.6042C16.0208 31.6086 13.5917 30.9058 11.4977 29.5784C11.3115 29.4606 11.1021 29.3841 10.8838 29.354C10.6654 29.324 10.4432 29.3411 10.232 29.4042L5.79203 30.7285L7.46474 26.8173C7.56197 26.5896 7.60292 26.3418 7.58414 26.0949C7.56535 25.8481 7.48738 25.6093 7.35682 25.399C6.07097 23.3279 5.39159 20.9378 5.39583 18.5ZM18.5 2.3125C9.55987 2.3125 2.31249 9.55987 2.31249 18.5C2.31249 21.3336 3.0417 24.0007 4.32437 26.3209L1.66499 32.54C1.54989 32.8094 1.51393 33.106 1.56132 33.3951C1.60872 33.6842 1.7375 33.9538 1.93259 34.1723C2.12768 34.3909 2.381 34.5493 2.66289 34.6291C2.94478 34.7089 3.24356 34.7067 3.52424 34.6227L10.4617 32.5538C12.9084 33.9559 15.6801 34.6916 18.5 34.6875C27.4401 34.6875 34.6875 27.4401 34.6875 18.5C34.6875 9.55987 27.4401 2.3125 18.5 2.3125ZM22.035 21.8639L20.0077 23.2915C18.8908 22.6489 17.8651 21.8591 16.9583 20.9435C15.9848 19.9714 15.1431 18.8756 14.4547 17.6845L15.742 16.5914C16.0102 16.3638 16.1925 16.0514 16.2587 15.7059C16.3249 15.3604 16.2709 15.0027 16.1058 14.6921L14.4655 11.6087C14.3563 11.404 14.2023 11.2265 14.015 11.0895C13.8277 10.9525 13.6119 10.8596 13.3836 10.8177C13.1554 10.7757 12.9207 10.7859 12.6969 10.8473C12.4731 10.9087 12.2661 11.0199 12.0913 11.1725L11.6041 11.5964C10.434 12.617 9.74178 14.2943 10.3153 15.9932C11.238 18.6805 12.7648 21.1204 14.7784 23.125C17.5735 25.92 20.4132 27.0208 22.0751 27.4494C23.4133 27.7932 24.679 27.3322 25.5716 26.6045L26.4827 25.8615C26.6748 25.7048 26.8263 25.5042 26.9244 25.2765C27.0224 25.0489 27.0641 24.801 27.046 24.5538C27.0278 24.3066 26.9503 24.0674 26.8201 23.8565C26.6898 23.6456 26.5107 23.4693 26.2977 23.3424L23.7108 21.8007C23.455 21.6481 23.1605 21.5728 22.8628 21.584C22.5651 21.5952 22.2771 21.6925 22.0335 21.8639H22.035Z" fill="white"/>
</svg>
